<?xml version="1.0" encoding="utf-8"?>
<svg viewBox="0 0 169.97 87.9071" width="169.97" height="87.9071" xmlns="http://www.w3.org/2000/svg">
  <g data-v-0dd9719b="" fill="#333333" class="icon-text-wrapper icon-svg-group iconsvg" transform="matrix(0.9999999999999999, 0, 0, 0.9999999999999999, 0, -1.4210854715202004e-14)">
    <g class="iconsvg-imagesvg" transform="matrix(1,0,0,1,45.98500061035156,0)" opacity="1">
      <g>
        <rect fill="#333333" fill-opacity="0" stroke-width="2" x="0" y="0" width="78" height="60.64705745142404" class="image-rect"/>
        <svg x="0" y="0" width="78" height="60.64705745142404" filtersec="colorsb5049500985" class="image-svg-svg primary" style="overflow: visible;">
          <svg xmlns="http://www.w3.org/2000/svg" viewBox="0 0 340.3999938964844 264.6700134277344">
            <defs>
              <clipPath id="aa12d1a56-b4a7-412f-992f-571eb6828cf6">
                <path fill="none" clip-rule="evenodd" d="M170.2 0l85.1 132.31 85.1 132.32H198.24l46.43-72.19L170.2 76.65 49.3 264.63H0l85.1-132.32L170.2 0z"/>
              </clipPath>
            </defs>
            <g>
              <g>
                <g clip-path="url(#aa12d1a56-b4a7-412f-992f-571eb6828cf6)">
                  <path fill="#ed6a00" d="M0 0h.66v264.63H0z"/>
                  <path fill="#ed6a00" d="M0 0h1.99v264.63H0z"/>
                  <path fill="#ed6a00" d="M1.33 0h1.99v264.63H1.33z"/>
                  <path fill="#ed6c00" d="M2.66 0h1.99v264.63H2.66z"/>
                  <path fill="#ed6c00" d="M3.99 0h1.99v264.63H3.99z"/>
                  <path fill="#ed6c00" d="M5.32 0h1.99v264.63H5.32z"/>
                  <path fill="#ed6c00" d="M6.65 0h1.99v264.63H6.65z"/>
                  <path fill="#ed6f00" d="M7.98 0h1.99v264.63H7.98z"/>
                  <path fill="#ed6f00" d="M9.31 0h1.99v264.63H9.31z"/>
                  <path fill="#ed6f00" d="M10.64 0h1.99v264.63h-1.99z"/>
                  <path fill="#ed6f00" d="M11.97 0h1.99v264.63h-1.99z"/>
                  <path fill="#ed6f00" d="M13.3 0h1.99v264.63H13.3z"/>
                  <path fill="#ed6f00" d="M14.63 0h1.99v264.63h-1.99z"/>
                  <path fill="#ed7100" d="M15.96 0h1.99v264.63h-1.99z"/>
                  <path fill="#ed7100" d="M17.29 0h1.99v264.63h-1.99z"/>
                  <path fill="#ed7100" d="M18.62 0h1.99v264.63h-1.99z"/>
                  <path fill="#ed7100" d="M19.95 0h1.99v264.63h-1.99z"/>
                  <path fill="#ee7300" d="M21.27 0h1.99v264.63h-1.99z"/>
                  <path fill="#ee7300" d="M22.6 0h1.99v264.63H22.6z"/>
                  <path fill="#ee7300" d="M23.93 0h1.99v264.63h-1.99z"/>
                  <path fill="#ee7300" d="M25.26 0h1.99v264.63h-1.99z"/>
                  <path fill="#ee7300" d="M26.59 0h1.99v264.63h-1.99z"/>
                  <path fill="#ee7300" d="M27.92 0h1.99v264.63h-1.99z"/>
                  <path fill="#ee7500" d="M29.25 0h1.99v264.63h-1.99z"/>
                  <path fill="#ee7500" d="M30.58 0h1.99v264.63h-1.99z"/>
                  <path fill="#ee7500" d="M31.91 0h1.99v264.63h-1.99z"/>
                  <path fill="#ee7500" d="M33.24 0h1.99v264.63h-1.99z"/>
                  <path fill="#ee7800" d="M34.57 0h1.99v264.63h-1.99z"/>
                  <path fill="#ee7800" d="M35.9 0h1.99v264.63H35.9z"/>
                  <path fill="#ee7800" d="M37.23 0h1.99v264.63h-1.99z"/>
                  <path fill="#ee7800" d="M38.56 0h1.99v264.63h-1.99z"/>
                  <path fill="#ee7800" d="M39.89 0h1.99v264.63h-1.99z"/>
                  <path fill="#ee7800" d="M41.22 0h1.99v264.63h-1.99z"/>
                  <path fill="#ef7a00" d="M42.55 0h1.99v264.63h-1.99z"/>
                  <path fill="#ef7a00" d="M43.88 0h1.99v264.63h-1.99z"/>
                  <path fill="#ef7a00" d="M45.21 0h1.99v264.63h-1.99z"/>
                  <path fill="#ef7a00" d="M46.54 0h1.99v264.63h-1.99z"/>
                  <path fill="#ef7a00" d="M47.87 0h1.99v264.63h-1.99z"/>
                  <path fill="#ef7a00" d="M49.2 0h1.99v264.63H49.2z"/>
                  <path fill="#ef7c00" d="M50.53 0h1.99v264.63h-1.99z"/>
                  <path fill="#ef7c00" d="M51.86 0h1.99v264.63h-1.99z"/>
                  <path fill="#ef7c00" d="M53.19 0h1.99v264.63h-1.99z"/>
                  <path fill="#ef7c00" d="M54.52 0h1.99v264.63h-1.99z"/>
                  <path fill="#ef7e00" d="M55.85 0h1.99v264.63h-1.99z"/>
                  <path fill="#ef7e00" d="M57.18 0h1.99v264.63h-1.99z"/>
                  <path fill="#ef7e00" d="M58.51 0h1.99v264.63h-1.99z"/>
                  <path fill="#ef7e00" d="M59.84 0h1.99v264.63h-1.99z"/>
                  <path fill="#ef7e00" d="M61.17 0h1.99v264.63h-1.99z"/>
                  <path fill="#ef7e00" d="M62.5 0h1.99v264.63H62.5z"/>
                  <path fill="#f08000" d="M63.82 0h1.99v264.63h-1.99z"/>
                  <path fill="#f08000" d="M65.15 0h1.99v264.63h-1.99z"/>
                  <path fill="#f08000" d="M66.48 0h1.99v264.63h-1.99z"/>
                  <path fill="#f08300" d="M67.81 0h1.99v264.63h-1.99z"/>
                  <path fill="#f08300" d="M69.14 0h1.99v264.63h-1.99z"/>
                  <path fill="#f08300" d="M70.47 0h1.99v264.63h-1.99z"/>
                  <path fill="#f08300" d="M71.8 0h1.99v264.63H71.8z"/>
                  <path fill="#f08300" d="M73.13 0h1.99v264.63h-1.99z"/>
                  <path fill="#f08300" d="M74.46 0h1.99v264.63h-1.99z"/>
                  <path fill="#f08500" d="M75.79 0h1.99v264.63h-1.99z"/>
                  <path fill="#f08500" d="M77.12 0h1.99v264.63h-1.99z"/>
                  <path fill="#f08500" d="M78.45 0h1.99v264.63h-1.99z"/>
                  <path fill="#f08500" d="M79.78 0h1.99v264.63h-1.99z"/>
                  <path fill="#f18700" d="M81.11 0h1.99v264.63h-1.99z"/>
                  <path fill="#f18700" d="M82.44 0h1.99v264.63h-1.99z"/>
                  <path fill="#f18700" d="M83.77 0h1.99v264.63h-1.99z"/>
                  <path fill="#f18700" d="M85.1 0h1.99v264.63H85.1z"/>
                  <path fill="#f18700" d="M86.43 0h1.99v264.63h-1.99z"/>
                  <path fill="#f18700" d="M87.76 0h1.99v264.63h-1.99z"/>
                  <path fill="#f18900" d="M89.09 0h1.99v264.63h-1.99z"/>
                  <path fill="#f18900" d="M90.42 0h1.99v264.63h-1.99z"/>
                  <path fill="#f18900" d="M91.75 0h1.99v264.63h-1.99z"/>
                  <path fill="#f18900" d="M93.08 0h1.99v264.63h-1.99z"/>
                  <path fill="#f18b00" d="M94.41 0h1.99v264.63h-1.99z"/>
                  <path fill="#f18b00" d="M95.74 0h1.99v264.63h-1.99z"/>
                  <path fill="#f18b00" d="M97.07 0h1.99v264.63h-1.99z"/>
                  <path fill="#f18b00" d="M98.4 0h1.99v264.63H98.4z"/>
                  <path fill="#f18b00" d="M99.73 0h1.99v264.63h-1.99z"/>
                  <path fill="#f18b00" d="M101.06 0h1.99v264.63h-1.99z"/>
                  <path fill="#f18d00" d="M102.39 0h1.99v264.63h-1.99z"/>
                  <path fill="#f18d00" d="M103.72 0h1.99v264.63h-1.99z"/>
                  <path fill="#f18d00" d="M105.05 0h1.99v264.63h-1.99z"/>
                  <path fill="#f18d00" d="M106.37 0h1.99v264.63h-1.99z"/>
                  <path fill="#f18d00" d="M107.7 0h1.99v264.63h-1.99z"/>
                  <path fill="#f18d00" d="M109.03 0h1.99v264.63h-1.99z"/>
                  <path fill="#f28f00" d="M110.36 0h1.99v264.63h-1.99z"/>
                  <path fill="#f28f00" d="M111.69 0h1.99v264.63h-1.99z"/>
                  <path fill="#f28f00" d="M113.02 0h1.99v264.63h-1.99z"/>
                  <path fill="#f28f00" d="M114.35 0h1.99v264.63h-1.99z"/>
                  <path fill="#f29100" d="M115.68 0h1.99v264.63h-1.99z"/>
                  <path fill="#f29100" d="M117.01 0H119v264.63h-1.99z"/>
                  <path fill="#f29100" d="M118.34 0h1.99v264.63h-1.99z"/>
                  <path fill="#f29100" d="M119.67 0h1.99v264.63h-1.99z"/>
                  <path fill="#f29100" d="M121 0h1.99v264.63H121z"/>
                  <path fill="#f29100" d="M122.33 0h1.99v264.63h-1.99z"/>
                  <path fill="#f29300" d="M123.66 0h1.99v264.63h-1.99z"/>
                  <path fill="#f29300" d="M124.99 0h1.99v264.63h-1.99z"/>
                  <path fill="#f29300" d="M126.32 0h1.99v264.63h-1.99z"/>
                  <path fill="#f29300" d="M127.65 0h1.99v264.63h-1.99z"/>
                  <path fill="#f39500" d="M128.98 0h1.99v264.63h-1.99z"/>
                  <path fill="#f39500" d="M130.31 0h1.99v264.63h-1.99z"/>
                  <path fill="#f39500" d="M131.64 0h1.99v264.63h-1.99z"/>
                  <path fill="#f39500" d="M132.97 0h1.99v264.63h-1.99z"/>
                  <path fill="#f39500" d="M134.3 0h1.99v264.63h-1.99z"/>
                  <path fill="#f39800" d="M135.63 0h1.99v264.63h-1.99z"/>
                  <path fill="#f39800" d="M136.96 0h1.99v264.63h-1.99z"/>
                  <path fill="#f39800" d="M138.29 0h1.99v264.63h-1.99z"/>
                  <path fill="#f39800" d="M139.62 0h1.99v264.63h-1.99z"/>
                  <path fill="#f39a00" d="M140.95 0h1.99v264.63h-1.99z"/>
                  <path fill="#f39a00" d="M142.28 0h1.99v264.63h-1.99z"/>
                  <path fill="#f39a00" d="M143.61 0h1.99v264.63h-1.99z"/>
                  <path fill="#f39a00" d="M144.94 0h1.99v264.63h-1.99z"/>
                  <path fill="#f39a00" d="M146.27 0h1.99v264.63h-1.99z"/>
                  <path fill="#f39a00" d="M147.6 0h1.99v264.63h-1.99z"/>
                  <path fill="#f49c00" d="M148.92 0h1.99v264.63h-1.99z"/>
                  <path fill="#f49c00" d="M150.25 0h1.99v264.63h-1.99z"/>
                  <path fill="#f49c00" d="M151.58 0h1.99v264.63h-1.99z"/>
                  <path fill="#f49c00" d="M152.91 0h1.99v264.63h-1.99z"/>
                  <path fill="#f49e00" d="M154.24 0h1.99v264.63h-1.99z"/>
                  <path fill="#f49e00" d="M155.57 0h1.99v264.63h-1.99z"/>
                  <path fill="#f49e00" d="M156.9 0h1.99v264.63h-1.99z"/>
                  <path fill="#f49e00" d="M158.23 0h1.99v264.63h-1.99z"/>
                  <path fill="#f49e00" d="M159.56 0h1.99v264.63h-1.99z"/>
                  <path fill="#f49e00" d="M160.89 0h1.99v264.63h-1.99z"/>
                  <path fill="#f5a000" d="M162.22 0h1.99v264.63h-1.99z"/>
                  <path fill="#f5a000" d="M163.55 0h1.99v264.63h-1.99z"/>
                  <path fill="#f5a000" d="M164.88 0h1.99v264.63h-1.99z"/>
                  <path fill="#f5a000" d="M166.21 0h1.99v264.63h-1.99z"/>
                  <path fill="#f5a200" d="M167.54 0h1.99v264.63h-1.99z"/>
                  <path fill="#f5a200" d="M168.87 0h1.99v264.63h-1.99z"/>
                  <path fill="#f5a200" d="M170.2 0h1.99v264.63h-1.99z"/>
                  <path fill="#f5a200" d="M171.53 0h1.99v264.63h-1.99z"/>
                  <path fill="#f5a200" d="M172.86 0h1.99v264.63h-1.99z"/>
                  <path fill="#f5a200" d="M174.19 0h1.99v264.63h-1.99z"/>
                  <path fill="#f5a400" d="M175.52 0h1.99v264.63h-1.99z"/>
                  <path fill="#f5a400" d="M176.85 0h1.99v264.63h-1.99z"/>
                  <path fill="#f5a400" d="M178.18 0h1.99v264.63h-1.99z"/>
                  <path fill="#f5a400" d="M179.51 0h1.99v264.63h-1.99z"/>
                  <path fill="#f5a400" d="M180.84 0h1.99v264.63h-1.99z"/>
                  <path fill="#f5a400" d="M182.17 0h1.99v264.63h-1.99z"/>
                  <path fill="#f5a500" d="M183.5 0h1.99v264.63h-1.99z"/>
                  <path fill="#f5a500" d="M184.83 0h1.99v264.63h-1.99z"/>
                  <path fill="#f5a500" d="M186.16 0h1.99v264.63h-1.99z"/>
                  <path fill="#f5a500" d="M187.49 0h1.99v264.63h-1.99z"/>
                  <path fill="#f6a700" d="M188.82 0h1.99v264.63h-1.99z"/>
                  <path fill="#f6a700" d="M190.15 0h1.99v264.63h-1.99z"/>
                  <path fill="#f6a700" d="M191.47 0h1.99v264.63h-1.99z"/>
                  <path fill="#f6a700" d="M192.8 0h1.99v264.63h-1.99z"/>
                  <path fill="#f6a700" d="M194.13 0h1.99v264.63h-1.99z"/>
                  <path fill="#f6a700" d="M195.46 0h1.99v264.63h-1.99z"/>
                  <path fill="#f6a900" d="M196.79 0h1.99v264.63h-1.99z"/>
                  <path fill="#f6a900" d="M198.12 0h1.99v264.63h-1.99z"/>
                  <path fill="#f6a900" d="M199.45 0h1.99v264.63h-1.99z"/>
                  <path fill="#f6a900" d="M200.78 0h1.99v264.63h-1.99z"/>
                  <path fill="#f6ab00" d="M202.11 0h1.99v264.63h-1.99z"/>
                  <path fill="#f6ab00" d="M203.44 0h1.99v264.63h-1.99z"/>
                  <path fill="#f6ab00" d="M204.77 0h1.99v264.63h-1.99z"/>
                  <path fill="#f6ab00" d="M206.1 0h1.99v264.63h-1.99z"/>
                  <path fill="#f6ab00" d="M207.43 0h1.99v264.63h-1.99z"/>
                  <path fill="#f7ad00" d="M208.76 0h1.99v264.63h-1.99z"/>
                  <path fill="#f7ad00" d="M210.09 0h1.99v264.63h-1.99z"/>
                  <path fill="#f7ad00" d="M211.42 0h1.99v264.63h-1.99z"/>
                  <path fill="#f7ad00" d="M212.75 0h1.99v264.63h-1.99z"/>
                  <path fill="#f7af00" d="M214.08 0h1.99v264.63h-1.99z"/>
                  <path fill="#f7af00" d="M215.41 0h1.99v264.63h-1.99z"/>
                  <path fill="#f7af00" d="M216.74 0h1.99v264.63h-1.99z"/>
                  <path fill="#f7af00" d="M218.07 0h1.99v264.63h-1.99z"/>
                  <path fill="#f7af00" d="M219.4 0h1.99v264.63h-1.99z"/>
                  <path fill="#f7af00" d="M220.73 0h1.99v264.63h-1.99z"/>
                  <path fill="#f8b100" d="M222.06 0h1.99v264.63h-1.99z"/>
                  <path fill="#f8b100" d="M223.39 0h1.99v264.63h-1.99z"/>
                  <path fill="#f8b100" d="M224.72 0h1.99v264.63h-1.99z"/>
                  <path fill="#f8b100" d="M226.05 0h1.99v264.63h-1.99z"/>
                  <path fill="#f8b300" d="M227.38 0h1.99v264.63h-1.99z"/>
                  <path fill="#f8b300" d="M228.71 0h1.99v264.63h-1.99z"/>
                  <path fill="#f8b300" d="M230.04 0h1.99v264.63h-1.99z"/>
                  <path fill="#f8b300" d="M231.37 0h1.99v264.63h-1.99z"/>
                  <path fill="#f8b300" d="M232.69 0h1.99v264.63h-1.99z"/>
                  <path fill="#f8b300" d="M234.02 0h1.99v264.63h-1.99z"/>
                  <path fill="#f8b500" d="M235.35 0h1.99v264.63h-1.99z"/>
                  <path fill="#f8b500" d="M236.68 0h1.99v264.63h-1.99z"/>
                  <path fill="#f8b500" d="M238.01 0H240v264.63h-1.99z"/>
                  <path fill="#f8b500" d="M239.34 0h1.99v264.63h-1.99z"/>
                  <path fill="#f8b500" d="M240.67 0h1.99v264.63h-1.99z"/>
                  <path fill="#f8b500" d="M242 0h1.99v264.63H242z"/>
                  <path fill="#f9b700" d="M243.33 0h1.99v264.63h-1.99z"/>
                  <path fill="#f9b700" d="M244.66 0h1.99v264.63h-1.99z"/>
                  <path fill="#f9b700" d="M245.99 0h1.99v264.63h-1.99z"/>
                  <path fill="#f9b700" d="M247.32 0h1.99v264.63h-1.99z"/>
                  <path fill="#f9b900" d="M248.65 0h1.99v264.63h-1.99z"/>
                  <path fill="#f9b900" d="M249.98 0h1.99v264.63h-1.99z"/>
                  <path fill="#f9b900" d="M251.31 0h1.99v264.63h-1.99z"/>
                  <path fill="#f9b900" d="M252.64 0h1.99v264.63h-1.99z"/>
                  <path fill="#f9b900" d="M253.97 0h1.99v264.63h-1.99z"/>
                  <path fill="#f9b900" d="M255.3 0h1.99v264.63h-1.99z"/>
                  <path fill="#f9bb00" d="M256.63 0h1.99v264.63h-1.99z"/>
                  <path fill="#f9bb00" d="M257.96 0h1.99v264.63h-1.99z"/>
                  <path fill="#f9bb00" d="M259.29 0h1.99v264.63h-1.99z"/>
                  <path fill="#f9bb00" d="M260.62 0h1.99v264.63h-1.99z"/>
                  <path fill="#fabd00" d="M261.95 0h1.99v264.63h-1.99z"/>
                  <path fill="#fabd00" d="M263.28 0h1.99v264.63h-1.99z"/>
                  <path fill="#fabd00" d="M264.61 0h1.99v264.63h-1.99z"/>
                  <path fill="#fabd00" d="M265.94 0h1.99v264.63h-1.99z"/>
                  <path fill="#fabd00" d="M267.27 0h1.99v264.63h-1.99z"/>
                  <path fill="#fabd00" d="M268.6 0h1.99v264.63h-1.99z"/>
                  <path fill="#fabe00" d="M269.93 0h1.99v264.63h-1.99z"/>
                  <path fill="#fabe00" d="M271.26 0h1.99v264.63h-1.99z"/>
                  <path fill="#fabe00" d="M272.59 0h1.99v264.63h-1.99z"/>
                  <path fill="#fac000" d="M273.92 0h1.99v264.63h-1.99z"/>
                  <path fill="#fac000" d="M275.24 0h1.99v264.63h-1.99z"/>
                  <path fill="#fac000" d="M276.57 0h1.99v264.63h-1.99z"/>
                  <path fill="#fac000" d="M277.9 0h1.99v264.63h-1.99z"/>
                  <path fill="#fac000" d="M279.23 0h1.99v264.63h-1.99z"/>
                  <path fill="#fac000" d="M280.56 0h1.99v264.63h-1.99z"/>
                  <path fill="#fbc200" d="M281.89 0h1.99v264.63h-1.99z"/>
                  <path fill="#fbc200" d="M283.22 0h1.99v264.63h-1.99z"/>
                  <path fill="#fbc200" d="M284.55 0h1.99v264.63h-1.99z"/>
                  <path fill="#fbc200" d="M285.88 0h1.99v264.63h-1.99z"/>
                  <path fill="#fbc400" d="M287.21 0h1.99v264.63h-1.99z"/>
                  <path fill="#fbc400" d="M288.54 0h1.99v264.63h-1.99z"/>
                  <path fill="#fbc400" d="M289.87 0h1.99v264.63h-1.99z"/>
                  <path fill="#fbc400" d="M291.2 0h1.99v264.63h-1.99z"/>
                  <path fill="#fbc400" d="M292.53 0h1.99v264.63h-1.99z"/>
                  <path fill="#fbc400" d="M293.86 0h1.99v264.63h-1.99z"/>
                  <path fill="#fbc600" d="M295.19 0h1.99v264.63h-1.99z"/>
                  <path fill="#fbc600" d="M296.52 0h1.99v264.63h-1.99z"/>
                  <path fill="#fbc600" d="M297.85 0h1.99v264.63h-1.99z"/>
                  <path fill="#fbc600" d="M299.18 0h1.99v264.63h-1.99z"/>
                  <path fill="#fcc800" d="M300.51 0h1.99v264.63h-1.99z"/>
                  <path fill="#fcc800" d="M301.84 0h1.99v264.63h-1.99z"/>
                  <path fill="#fcc800" d="M303.17 0h1.99v264.63h-1.99z"/>
                  <path fill="#fcc800" d="M304.5 0h1.99v264.63h-1.99z"/>
                  <path fill="#fcc800" d="M305.83 0h1.99v264.63h-1.99z"/>
                  <path fill="#fcc800" d="M307.16 0h1.99v264.63h-1.99z"/>
                  <path fill="#fcc900" d="M308.49 0h1.99v264.63h-1.99z"/>
                  <path fill="#fcc900" d="M309.82 0h1.99v264.63h-1.99z"/>
                  <path fill="#fcc900" d="M311.15 0h1.99v264.63h-1.99z"/>
                  <path fill="#fcc900" d="M312.48 0h1.99v264.63h-1.99z"/>
                  <path fill="#fcc900" d="M313.81 0h1.99v264.63h-1.99z"/>
                  <path fill="#fcc900" d="M315.14 0h1.99v264.63h-1.99z"/>
                  <path fill="#fccb00" d="M316.47 0h1.99v264.63h-1.99z"/>
                  <path fill="#fccb00" d="M317.79 0h1.99v264.63h-1.99z"/>
                  <path fill="#fccb00" d="M319.12 0h1.99v264.63h-1.99z"/>
                  <path fill="#fccb00" d="M320.45 0h1.99v264.63h-1.99z"/>
                  <path fill="#fdcd00" d="M321.78 0h1.99v264.63h-1.99z"/>
                  <path fill="#fdcd00" d="M323.11 0h1.99v264.63h-1.99z"/>
                  <path fill="#fdcd00" d="M324.44 0h1.99v264.63h-1.99z"/>
                  <path fill="#fdcd00" d="M325.77 0h1.99v264.63h-1.99z"/>
                  <path fill="#fdcd00" d="M327.1 0h1.99v264.63h-1.99z"/>
                  <path fill="#fdcd00" d="M328.43 0h1.99v264.63h-1.99z"/>
                  <path fill="#fdcf00" d="M329.76 0h1.99v264.63h-1.99z"/>
                  <path fill="#fdcf00" d="M331.09 0h1.99v264.63h-1.99z"/>
                  <path fill="#fdcf00" d="M332.42 0h1.99v264.63h-1.99z"/>
                  <path fill="#fdcf00" d="M333.75 0h1.99v264.63h-1.99z"/>
                  <path fill="#fdd000" d="M335.08 0h1.99v264.63h-1.99z"/>
                  <path fill="#fdd000" d="M336.41 0h1.99v264.63h-1.99z"/>
                  <path fill="#fdd000" d="M337.74 0h2.66v264.63h-2.66z"/>
                </g>
                <path d="M180.23 264.63h-47.36l17.8-27.63L203 155.62l23.68 36.82L198 237l-17.8 27.67zm-64.66 0l17.8-27.63 61-94.79-24.17-37.57L85.1 237l-17.8 27.63z" fill="#641d87" fill-rule="evenodd"/>
              </g>
            </g>
          </svg>
        </svg>
      </g>
    </g>
    <g transform="translate(0,67.64706039428711)">
      <g data-gra="path-name" fill-rule="" class="tp-name iconsvg-namesvg" transform="matrix(1,0,0,1,0,0)" opacity="1">
        <g transform="scale(1)">
          <g>
            <path d="M-0.28-3.28C1.22-0.92 4.15 0.28 6.51 0.28 10.77 0.28 14.11-1.64 14.83-5.48 15.75-10.38 12.41-11.69 8.99-12.33 7.49-12.66 6.48-13.16 6.62-14.3 6.73-15.31 7.79-15.78 9.04-15.75 10.18-15.72 11.49-15.28 12.33-14.33L15.95-16.84C14.25-19.31 12.02-19.98 9.63-19.98 6.01-19.98 2.45-18.56 1.7-14.53 1-10.8 3.78-8.32 6.87-7.82 8.46-7.6 10.18-7.07 9.96-5.84 9.77-4.81 8.6-4.34 7.26-4.34 5.79-4.34 4.15-4.98 3.28-6.23ZM16.2 0L21.18 0 22.26-7.88 22.21-11.69 22.32-11.72 23.49-7.76 26.85 0 31.89 0 34.65-19.7 29.69-19.7 28.44-10.77 28.5-7.37 28.38-7.35 27.27-11.3 23.68-19.7 18.95-19.7ZM35.42-6.48C34.78-1.98 38.54 0.28 42.63 0.28 46.92 0.28 51.12-1.98 51.76-6.48L52.73-13.22C53.37-17.73 49.59-19.98 45.5-19.98 41.41-19.98 37.07-17.75 36.4-13.22ZM41.38-13.22C41.6-14.69 43.36-15.44 44.97-15.44 46.58-15.44 47.98-14.69 47.75-13.22L46.78-6.62C46.56-5.06 44.8-4.34 43.19-4.34 41.69-4.34 40.21-5.06 40.41-6.48ZM70.77-10.21L69.63-6.09 69.54-6.09 69.49-10.21 68.43-17.14 64.64-17.14 61.47-10.24 60.41-6.09 60.3-6.09 60.36-10.27 59.36-19.7 54.18-19.7 57.13 0 61.75 0 64.06-5.48 65.45-9.96 65.53-9.96 65.59-5.45 66.59 0 71.21 0 79.64-19.7 74.5-19.7ZM94.98-15.17L95.64-19.73 79.98-19.73 79.31-15.17 84.62-15.17 82.54 0 87.57 0 89.66-15.17ZM105.61 0L111.81 0 107.08-6.76C109.78-8.04 111.34-9.27 111.84-12.91 112.4-17.53 109.5-19.7 105.44-19.7L97.56-19.7 94.81 0 99.85 0 100.71-6.26 101.6-6.26ZM101.32-10.55L101.96-15.05 104.88-15.05C106.36-15.05 106.94-14.03 106.8-12.83 106.66-11.69 105.77-10.55 104.24-10.55ZM120.44-19.7L115.46-19.7 112.7 0 117.68 0ZM131.71-6.15C131.04-4.9 129.76-4.37 128.62-4.37 127.23-4.37 126-5.18 126.2-6.46L127.15-13.25C127.34-14.58 128.76-15.36 130.18-15.39 131.35-15.39 132.52-14.92 132.96-13.8L137.25-15.44C136.16-18.95 133.38-19.98 130.96-19.98 127.01-19.98 122.78-17.7 122.16-13.25L121.22-6.46C120.61-1.98 124.17 0.28 128.04 0.28 130.51 0.28 133.35-0.7 135.77-4.15ZM143.67-12.41L144.7-19.7 139.7-19.7 136.94 0 141.95 0 142.9-6.82 143.09-7.04 147.21 0 153.47 0 147.1-10.02 156.25-19.7 150.05-19.7ZM153.47-3.28C154.97-0.92 157.89 0.28 160.26 0.28 164.52 0.28 167.86-1.64 168.58-5.48 169.5-10.38 166.16-11.69 162.74-12.33 161.23-12.66 160.23-13.16 160.37-14.3 160.48-15.31 161.54-15.78 162.79-15.75 163.93-15.72 165.24-15.28 166.08-14.33L169.69-16.84C168-19.31 165.77-19.98 163.38-19.98 159.76-19.98 156.2-18.56 155.45-14.53 154.75-10.8 157.53-8.32 160.62-7.82 162.21-7.6 163.93-7.07 163.71-5.84 163.52-4.81 162.35-4.34 161.01-4.34 159.54-4.34 157.89-4.98 157.03-6.23Z" transform="translate(0.2800000011920929, 19.979999542236328)"/>
          </g>
        </g>
      </g>
    </g>
  </g>
</svg>